{"title":"Kiss.of.the.Damned.2012.WEBRip XViD juggs","uid":8316942,"size":740223393,"categoryP":"video","categoryS":"movies","magnet":"?xt=urn:btih:22948c2757e87994ef9ea965c64217b64cad0618&amp;dn=Kiss.of.the.Damned.2012.WEBRip+XViD+juggs&amp;tr=udp%3A%2F%2Ftracker.openbittorrent.com%3A80&amp;tr=udp%3A%2F%2Fopen.demonii.com%3A1337&amp;tr=udp%3A%2F%2Ftracker.coppersurfer.tk%3A6969&amp;tr=udp%3A%2F%2Fexodus.desync.com%3A6969","seeders":3,"leechers":2,"uploader":"juggs99","files":3,"time":1364608567,"description":"Source :ctrlHD(Thanks)\n &lt;a href=&quot;\nhttp://www.imdb.com/title/tt1959438/&quot; rel=&quot;nofollow&quot; target=&quot;_NEW&quot;&gt;\nhttp://www.imdb.com/title/tt1959438/&lt;/a&gt;\n\nFormat                                   : AVI\nFormat/Info                              : Audio Video Interleave\nFile size                                : 700 MiB\nDuration                                 : 1h 35mn\nOverall bit rate                         : 1 025 Kbps\nWriting library                          : VirtualDub build 32842/release\n\nVideo\nID                                       : 0\nFormat                                   : MPEG-4 Visual\nFormat profile                           : Advanced Simple@L5\nFormat settings, BVOP                    : 4\nFormat settings, QPel                    : No\nFormat settings, GMC                     : No warppoints\nFormat settings, Matrix                  : Default (H.263)\nMuxing mode                              : Packed bitstream\nCodec ID                                 : XVID\nCodec ID/Hint                            : XviD\nDuration                                 : 1h 35mn\nBit rate                                 : 888 Kbps\nWidth                                    : 640 pixels\nHeight                                   : 272 pixels\nDisplay aspect ratio                     : 2.35:1\nFrame rate                               : 23.976 fps\nColor space                              : YUV\nChroma subsampling                       : 4:2:0\nBit depth                                : 8 bits\nScan type                                : Progressive\nCompression mode                         : Lossy\nBits/(Pixel*Frame)                       : 0.213\nStream size                              : 606 MiB (87%)\nWriting library                          : XviD 64\n\nAudio\nID                                       : 1\nFormat                                   : MPEG Audio\nFormat version                           : Version 1\nFormat profile                           : Layer 3\nCodec ID                                 : 55\nCodec ID/Hint                            : MP3\nDuration                                 : 1h 35mn\nBit rate mode                            : Constant\nBit rate                                 : 128 Kbps\nChannel(s)                               : 2 channels\nSampling rate                            : 44.1 KHz\nCompression mode                         : Lossy\nStream size                              : 87.4 MiB (12%)\nAlignment                                : Split accross interleaves\nInterleave, duration                     : 42 ms (1.00 video frame)\nInterleave, preload duration             : 500 ms\nWriting library                          : LAME3.99r\nEncoding settings                        : -m s -V 4 -q 3 -lowpass 17 -b 128\n\n\nPlot\nThe vampire Djuna resists the advances of Paolo, but soon gives in to their passion. When her trouble-making sister unexpectedly comes to visit, Djuna's love is threatened, and the whole vampire community becomes endangered.\n &lt;a href=&quot;\nhttp://www.shotpix.com/images/87332150904845945684.png&quot; rel=&quot;nofollow&quot; target=&quot;_NEW&quot;&gt;\nhttp://www.shotpix.com/images/87332150904845945684.png&lt;/a&gt; &lt;a href=&quot;\nhttp://www.shotpix.com/images/94511615422089312244.png&quot; rel=&quot;nofollow&quot; target=&quot;_NEW&quot;&gt;\nhttp://www.shotpix.com/images/94511615422089312244.png&lt;/a&gt; &lt;a href=&quot;\nhttp://www.shotpix.com/images/17324732560969671378.png&quot; rel=&quot;nofollow&quot; target=&quot;_NEW&quot;&gt;\nhttp://www.shotpix.com/images/17324732560969671378.png&lt;/a&gt;","torrent":{"xt":"urn:btih:22948c2757e87994ef9ea965c64217b64cad0618","amp;dn":"Kiss.of.the.Damned.2012.WEBRip+XViD+juggs","amp;tr":["udp%3A%2F%2Ftracker.openbittorrent.com%3A80","udp%3A%2F%2Fopen.demonii.com%3A1337","udp%3A%2F%2Ftracker.coppersurfer.tk%3A6969","udp%3A%2F%2Fexodus.desync.com%3A6969"],"infoHash":"22948c2757e87994ef9ea965c64217b64cad0618","infoHashBuffer":{"type":"Buffer","data":[34,148,140,39,87,232,121,148,239,158,169,101,198,66,23,182,76,173,6,24]},"announce":[],"urlList":[]}}